<?xml version="1.0" encoding="UTF-8"?>
<svg id="Layer_2" data-name="Layer 2" xmlns="http://www.w3.org/2000/svg" viewBox="0 0 269.75 317.71">
  <defs>
    <style>
      .cls-1 {
        fill: #00d8ff;
      }
    </style>
  </defs>
  <g id="shields">
    <g>
      <path class="cls-1" d="M159.08,197.69c0,13.37-10.83,24.2-24.2,24.2s-24.2-10.84-24.2-24.2,10.83-24.2,24.2-24.2,24.2,10.83,24.2,24.2Z"/>
      <path class="cls-1" d="M134.88,142.69C60.38,142.69,0,167.31,0,197.69s60.38,55,134.88,55,134.88-24.62,134.88-55-60.39-55-134.88-55Zm91.13,83.5c-24.16,9.85-56.53,15.28-91.13,15.28s-66.97-5.43-91.13-15.28c-20.36-8.3-32.52-18.96-32.52-28.5s12.15-20.19,32.52-28.5c24.16-9.85,56.53-15.28,91.13-15.28s66.97,5.43,91.13,15.28c20.36,8.3,32.52,18.96,32.52,28.5s-12.16,20.19-32.52,28.5Z"/>
      <path class="cls-1" d="M87.25,170.19c-37.24,64.51-46.11,129.12-19.81,144.3,26.3,15.19,77.82-24.8,115.07-89.31,37.24-64.51,46.11-129.12,19.81-144.3-26.3-15.19-77.82,24.79-115.07,89.3Zm117.87-37.18c-3.55,25.85-15.03,56.59-32.33,86.56-17.31,29.97-38.19,55.29-58.8,71.29-17.37,13.48-32.68,18.68-40.94,13.91-8.27-4.77-11.41-20.62-8.42-42.41,3.55-25.85,15.04-56.59,32.34-86.56,17.31-29.97,38.19-55.29,58.8-71.28,17.37-13.48,32.68-18.69,40.94-13.91,8.26,4.77,11.41,20.62,8.42,42.41Z"/>
      <path class="cls-1" d="M67.44,80.89c-26.3,15.19-17.44,79.79,19.81,144.3,37.24,64.51,88.76,104.49,115.07,89.31,26.3-15.19,17.44-79.79-19.81-144.3-37.24-64.51-88.76-104.49-115.07-89.3Zm5.61,9.72c8.26-4.77,23.57,.43,40.94,13.91,20.61,16,41.49,41.31,58.8,71.28,17.31,29.97,28.79,60.71,32.34,86.56,2.99,21.79-.16,37.64-8.42,42.41-8.26,4.77-23.57-.43-40.94-13.91-20.61-16-41.49-41.32-58.8-71.29-17.31-29.97-28.79-60.71-32.34-86.56-2.99-21.79,.16-37.64,8.42-42.41Z"/>
    </g>
  </g>
  <g id="names">
    <g>
      <path d="M33.22,20.43v15.23h-4.76V.53h12.02c3.85,0,6.78,.85,8.81,2.56,2.03,1.71,3.04,4.19,3.04,7.44,0,1.8-.47,3.37-1.41,4.71s-2.31,2.4-4.12,3.19c1.93,.63,3.32,1.65,4.16,3.05s1.27,3.15,1.27,5.23v3.31c0,1.09,.12,2.08,.36,2.95,.24,.87,.66,1.58,1.26,2.12v.58h-4.9c-.63-.55-1.03-1.35-1.21-2.41-.18-1.06-.27-2.16-.27-3.28v-3.21c0-1.9-.56-3.43-1.67-4.59s-2.6-1.74-4.47-1.74h-8.14Zm0-3.74h6.78c2.69,0,4.62-.51,5.81-1.53,1.18-1.02,1.78-2.58,1.78-4.67,0-1.98-.58-3.51-1.73-4.6-1.15-1.09-2.94-1.63-5.37-1.63h-7.27v12.43Z"/>
      <path d="M79.12,19.36h-14.44v12.58h16.9v3.72h-21.66V.51h21.39v3.74h-16.63V15.62h14.44v3.74Z"/>
      <path d="M105.36,26.61h-13.23l-3.14,9.05h-4.85L96.81,.51h4.08l12.41,35.15h-4.85l-3.09-9.05Zm-11.86-3.98h10.5l-5.12-15.09h-.14l-5.24,15.09Z"/>
      <path d="M143.29,24.41l.05,.14c.06,3.3-1.09,6.06-3.48,8.28-2.38,2.22-5.53,3.33-9.44,3.33s-7.21-1.41-9.72-4.23c-2.5-2.82-3.75-6.39-3.75-10.72v-6.25c0-4.33,1.25-7.91,3.75-10.73,2.5-2.82,5.74-4.24,9.72-4.24s7.14,1.06,9.49,3.18c2.35,2.12,3.49,4.92,3.43,8.41l-.05,.14h-4.56c0-2.46-.72-4.41-2.17-5.84-1.45-1.43-3.49-2.15-6.13-2.15s-4.77,1.07-6.35,3.21-2.37,4.8-2.37,7.97v6.3c0,3.2,.79,5.88,2.37,8.02s3.69,3.21,6.35,3.21,4.68-.71,6.13-2.14,2.17-3.39,2.17-5.9h4.56Z"/>
      <path d="M173.4,4.25h-11.59v31.41h-4.76V4.25h-11.44V.51h27.79v3.74Z"/>
      <path d="M204.9,.51h4.76V25.47c0,3.27-.99,5.87-2.98,7.8-1.99,1.93-4.57,2.9-7.74,2.9s-5.81-.86-7.71-2.57c-1.91-1.71-2.82-4.2-2.74-7.47l.05-.14h4.56c0,2.19,.51,3.81,1.52,4.88,1.01,1.06,2.45,1.59,4.32,1.59,1.75,0,3.19-.64,4.3-1.91,1.11-1.27,1.67-2.96,1.67-5.07V.51Z"/>
      <path d="M236.53,26.8c0-1.59-.57-2.93-1.71-4.01-1.14-1.08-3.15-2-6.04-2.75-3.57-.88-6.36-2.19-8.37-3.91s-3.01-3.89-3.01-6.49c0-2.75,1.08-5.05,3.24-6.88,2.16-1.83,4.96-2.75,8.4-2.75,3.7,0,6.65,1.05,8.85,3.15,2.2,2.1,3.26,4.55,3.2,7.35l-.07,.14h-4.54c0-2-.7-3.65-2.09-4.95-1.39-1.3-3.18-1.96-5.35-1.96s-3.92,.54-5.11,1.62-1.78,2.48-1.78,4.2c0,1.53,.65,2.81,1.94,3.83s3.4,1.92,6.31,2.69c3.54,.92,6.24,2.27,8.09,4.06s2.78,3.99,2.78,6.62c0,2.83-1.11,5.11-3.34,6.83-2.23,1.72-5.14,2.58-8.73,2.58-3.4,0-6.39-.95-8.99-2.85-2.6-1.9-3.86-4.44-3.78-7.63l.05-.14h4.54c0,2.21,.84,3.91,2.51,5.11,1.67,1.2,3.57,1.8,5.67,1.8,2.25,0,4.04-.51,5.35-1.52,1.31-1.01,1.97-2.39,1.97-4.13Z"/>
    </g>
  </g>
</svg>