<?xml version="1.0" encoding="UTF-8"?>
<svg id="Layer_2" data-name="Layer 2" xmlns="http://www.w3.org/2000/svg" viewBox="0 0 234.09 342.64">
  <defs>
    <style>
      .cls-1 {
        fill: #fff;
      }

      .cls-2 {
        fill: #0b74b8;
      }
    </style>
  </defs>
  <g id="shields">
    <g>
      <polygon class="cls-2" points="116.9 342.64 21.3 316.1 0 77.16 234.09 77.16 212.76 316.06 116.9 342.64"/>
      <polygon class="cls-1" points="190.44 126.39 117.13 126.39 117.03 126.39 43.65 126.39 44.35 134.25 46.26 155.69 117.03 155.69 117.13 155.69 120.53 155.69 48.94 185.71 51.55 215.01 117.03 215.01 117.13 215.01 153.12 215.01 149.71 253.02 117.03 261.84 117.03 261.85 84.39 253.03 82.31 229.66 66.45 229.66 52.89 229.66 57 275.68 117.02 292.34 117.04 292.34 117.04 292.33 177.1 275.68 185.15 185.71 118.87 185.71 187.82 155.69 190.44 126.39"/>
    </g>
  </g>
  <g id="names">
    <g>
      <path d="M100.24,24.41l.05,.14c.06,3.3-1.09,6.06-3.48,8.28-2.38,2.22-5.53,3.33-9.44,3.33s-7.22-1.41-9.72-4.23c-2.5-2.82-3.75-6.39-3.75-10.72v-6.25c0-4.33,1.25-7.91,3.75-10.73,2.5-2.82,5.74-4.24,9.72-4.24s7.14,1.06,9.49,3.18,3.49,4.92,3.43,8.41l-.05,.14h-4.56c0-2.46-.72-4.41-2.17-5.84-1.45-1.43-3.49-2.15-6.13-2.15s-4.77,1.07-6.35,3.21c-1.58,2.14-2.37,4.8-2.37,7.97v6.3c0,3.2,.79,5.88,2.37,8.02,1.58,2.14,3.69,3.21,6.35,3.21s4.68-.71,6.13-2.14,2.17-3.39,2.17-5.9h4.56Z"/>
      <path d="M125.2,26.8c0-1.59-.57-2.93-1.71-4.01-1.14-1.08-3.16-2-6.04-2.75-3.57-.88-6.36-2.19-8.37-3.91-2-1.72-3.01-3.89-3.01-6.49,0-2.75,1.08-5.05,3.23-6.88s4.96-2.75,8.4-2.75c3.7,0,6.65,1.05,8.85,3.15,2.2,2.1,3.26,4.55,3.2,7.35l-.07,.14h-4.54c0-2-.7-3.65-2.09-4.95-1.39-1.3-3.17-1.96-5.35-1.96s-3.92,.54-5.11,1.62c-1.18,1.08-1.77,2.48-1.77,4.2,0,1.53,.65,2.81,1.94,3.83,1.3,1.02,3.4,1.92,6.31,2.69,3.54,.92,6.24,2.27,8.09,4.06,1.85,1.79,2.78,3.99,2.78,6.62,0,2.83-1.12,5.11-3.34,6.83-2.23,1.72-5.14,2.58-8.73,2.58-3.4,0-6.39-.95-8.99-2.85-2.6-1.9-3.86-4.44-3.78-7.63l.05-.14h4.54c0,2.21,.84,3.91,2.51,5.11,1.67,1.2,3.56,1.8,5.67,1.8,2.25,0,4.04-.51,5.35-1.52,1.31-1.01,1.97-2.39,1.97-4.13Z"/>
      <path d="M155.43,26.8c0-1.59-.57-2.93-1.71-4.01-1.14-1.08-3.16-2-6.04-2.75-3.57-.88-6.36-2.19-8.37-3.91-2-1.72-3.01-3.89-3.01-6.49,0-2.75,1.08-5.05,3.23-6.88s4.96-2.75,8.4-2.75c3.7,0,6.65,1.05,8.85,3.15,2.2,2.1,3.26,4.55,3.2,7.35l-.07,.14h-4.54c0-2-.7-3.65-2.09-4.95-1.39-1.3-3.17-1.96-5.35-1.96s-3.92,.54-5.11,1.62c-1.18,1.08-1.77,2.48-1.77,4.2,0,1.53,.65,2.81,1.94,3.83,1.3,1.02,3.4,1.92,6.31,2.69,3.54,.92,6.24,2.27,8.09,4.06,1.85,1.79,2.78,3.99,2.78,6.62,0,2.83-1.12,5.11-3.34,6.83-2.23,1.72-5.14,2.58-8.73,2.58-3.4,0-6.39-.95-8.99-2.85-2.6-1.9-3.86-4.44-3.78-7.63l.05-.14h4.54c0,2.21,.84,3.91,2.51,5.11,1.67,1.2,3.56,1.8,5.67,1.8,2.25,0,4.04-.51,5.35-1.52,1.31-1.01,1.97-2.39,1.97-4.13Z"/>
    </g>
  </g>
</svg>