<?xml version="1.0" encoding="UTF-8"?>
<svg id="Layer_2" data-name="Layer 2" xmlns="http://www.w3.org/2000/svg" xmlns:xlink="http://www.w3.org/1999/xlink" viewBox="0 0 332.48 298.88">
  <defs>
    <style>
      .cls-1 {
        fill: url(#linear-gradient-2);
      }

      .cls-2 {
        fill: #679e63;
      }

      .cls-3 {
        fill: url(#linear-gradient-3);
      }

      .cls-4 {
        fill: url(#linear-gradient);
      }
    </style>
    <linearGradient id="linear-gradient" x1="149.02" y1="135.6" x2="83.53" y2="254.09" gradientUnits="userSpaceOnUse">
      <stop offset="0" stop-color="#3f873f"/>
      <stop offset=".33" stop-color="#3e8a3d"/>
      <stop offset=".64" stop-color="#3e9537"/>
      <stop offset=".93" stop-color="#3da82d"/>
      <stop offset="1" stop-color="#3dae2b"/>
    </linearGradient>
    <linearGradient id="linear-gradient-2" x1="63.45" y1="185.48" x2="192.66" y2="180.42" xlink:href="#linear-gradient"/>
    <linearGradient id="linear-gradient-3" x1="88.88" y1="180.43" x2="157.12" y2="185.93" gradientUnits="userSpaceOnUse">
      <stop offset="0" stop-color="#6abf4b"/>
      <stop offset=".09" stop-color="#6abf4b"/>
      <stop offset=".29" stop-color="#63b649"/>
      <stop offset=".6" stop-color="#519f44"/>
      <stop offset=".86" stop-color="#3f873f"/>
      <stop offset="1" stop-color="#3f873f"/>
    </linearGradient>
  </defs>
  <g id="shields">
    <g>
      <path class="cls-2" d="M163.96,298.88c-1.09,0-2.18-.29-3.14-.84l-9.99-5.91c-1.49-.83-.76-1.13-.27-1.3,1.99-.69,2.39-.85,4.52-2.05,.22-.13,.51-.08,.74,.06l7.67,4.55c.28,.15,.67,.15,.93,0l29.91-17.26c.28-.16,.46-.48,.46-.81v-34.52c0-.34-.18-.65-.47-.82l-29.9-17.25c-.28-.16-.64-.16-.92,0l-29.89,17.25c-.29,.17-.47,.49-.47,.82v34.52c0,.33,.18,.64,.47,.8l8.19,4.73c4.45,2.22,7.17-.4,7.17-3.03v-34.08c0-.48,.39-.86,.87-.86h3.79c.47,0,.87,.38,.87,.86v34.08c0,5.93-3.23,9.34-8.86,9.34-1.73,0-3.09,0-6.89-1.87l-7.84-4.52c-1.94-1.12-3.14-3.21-3.14-5.46v-34.52c0-2.24,1.2-4.34,3.14-5.45l29.91-17.28c1.89-1.07,4.41-1.07,6.29,0l29.91,17.28c1.94,1.12,3.14,3.21,3.14,5.45v34.52c0,2.24-1.21,4.33-3.14,5.46l-29.91,17.27c-.96,.55-2.04,.84-3.15,.84"/>
      <path class="cls-2" d="M173.2,275.09c-13.09,0-15.83-6.01-15.83-11.05,0-.48,.39-.86,.86-.86h3.87c.43,0,.79,.31,.86,.73,.58,3.94,2.32,5.92,10.24,5.92,6.3,0,8.98-1.43,8.98-4.77,0-1.93-.76-3.36-10.55-4.32-8.18-.81-13.25-2.62-13.25-9.16,0-6.04,5.09-9.64,13.62-9.64,9.58,0,14.32,3.33,14.92,10.46,.02,.25-.06,.48-.23,.66-.16,.17-.39,.28-.63,.28h-3.88c-.4,0-.76-.29-.84-.68-.93-4.14-3.2-5.47-9.34-5.47-6.88,0-7.68,2.4-7.68,4.19,0,2.18,.94,2.81,10.23,4.04,9.19,1.21,13.56,2.94,13.56,9.39s-5.43,10.25-14.91,10.25"/>
      <path d="M243.15,106.48l-19-10.93c-1.28-.74-2.32-.13-2.32,1.34v51.93l-9.77-5.64c-1.28-.74-3.38-.74-4.66,0l-31.07,17.94c-1.28,.74-2.33,2.56-2.33,4.04v35.88c0,1.48,1.05,3.3,2.33,4.03l31.07,17.94c1.28,.74,3.38,.74,4.66,0l31.07-17.94c1.28-.74,2.33-2.56,2.33-4.03V110.49c0-1.47-1.04-3.28-2.32-4.01Zm-21.47,82.61c0,.49-.35,1.1-.78,1.35l-10.39,6c-.43,.25-1.13,.25-1.56,0l-10.39-6c-.43-.25-.78-.85-.78-1.35v-11.99c0-.5,.35-1.1,.78-1.35l10.39-6c.43-.25,1.13-.25,1.56,0l10.39,6c.43,.25,.78,.85,.78,1.35v11.99Z"/>
      <path d="M69.14,160.87l-31.07-17.94c-1.28-.74-3.38-.74-4.66,0L2.33,160.87c-1.28,.74-2.33,2.56-2.33,4.04v48.7c0,1.47,1.04,2.07,2.32,1.34l19.15-11.04c1.27-.74,2.32-2.54,2.32-4.01v-23.05c0-.49,.35-1.1,.78-1.35l10.39-6c.43-.25,1.13-.25,1.56,0l10.39,6c.43,.25,.78,.85,.78,1.35v23.05c0,1.47,1.04,3.28,2.32,4.01l19.15,11.04c1.28,.73,2.32,.13,2.32-1.34v-48.7c0-1.48-1.05-3.3-2.33-4.04Z"/>
      <g>
        <path d="M332.43,164.65c-.01-.09-.04-.18-.06-.27h0s0-.04-.01-.06c-.05-.2-.11-.4-.18-.6,0-.02-.01-.03-.02-.05h0c-.06-.15-.12-.29-.19-.43h0c-.1-.2-.21-.4-.33-.58-.03-.04-.05-.08-.08-.12-.08-.11-.15-.22-.24-.33-.07-.09-.14-.17-.21-.25-.04-.05-.09-.1-.13-.15-.11-.12-.22-.22-.34-.32-.03-.02-.06-.05-.08-.07-.13-.11-.27-.21-.42-.29l-7.12-4.11-23.96-13.83c-1.28-.74-3.38-.74-4.66,0l-31.07,17.94c-1.28,.74-2.33,2.56-2.33,4.04v35.88c0,1.48,1.05,3.3,2.33,4.03l9.52,5.5,21.53,12.45c1.27,.74,3.36,.73,4.63,0l19.14-11.07c1.27-.74,1.27-1.94,0-2.68l-32.58-18.83c-.43-.25-.78-.85-.78-1.35v-11.99c0-.5,.35-1.1,.78-1.35l10.39-6c.43-.25,1.13-.25,1.56,0l10.39,6c.43,.25,.78,.85,.78,1.35v9.24c0,1.47,1.04,2.08,2.32,1.34l9.97-5.74h0l9.19-5.3c1.27-.74,2.32-2.54,2.32-4.01v-7.47c0-.17-.02-.34-.04-.51Z"/>
        <path class="cls-2" d="M297.18,174.73c-.24-.14-.64-.14-.88,0l-5.88,3.4c-.24,.14-.44,.48-.44,.76v6.79c0,.28,.2,.62,.44,.76l5.88,3.39c.24,.14,.64,.14,.88,0l5.88-3.39c.24-.14,.44-.48,.44-.76v-6.79c0-.28-.2-.62-.44-.76l-5.88-3.4Z"/>
      </g>
      <g>
        <path class="cls-4" d="M120.41,143.24l-31.07,17.94c-1.28,.74-2.33,2.56-2.33,4.03v35.88c0,1.48,1.05,3.3,2.33,4.04l31.07,17.94c1.28,.74,3.38,.74,4.66,0l31.07-17.94c1.28-.74,2.33-2.56,2.33-4.04v-35.88c0-1.48-1.05-3.3-2.33-4.03l-31.07-17.94c-1.28-.74-3.38-.74-4.66,0Z"/>
        <path class="cls-1" d="M87.47,200.97c-.74,1.28-.29,2.92,.98,3.66l32.84,18.96c1.27,.74,2.92,.3,3.66-.98l33.06-57.26c.74-1.27,.29-2.92-.98-3.66l-32.83-18.96c-1.27-.74-2.92-.3-3.66,.98l-33.06,57.26Z"/>
        <path class="cls-3" d="M158,200.97c.74,1.28,.29,2.92-.98,3.66l-32.83,18.96c-1.27,.74-2.92,.3-3.66-.98l-33.06-57.26c-.74-1.27-.29-2.92,.98-3.66l32.83-18.96c1.27-.74,2.92-.3,3.66,.98l33.06,57.26Z"/>
      </g>
    </g>
  </g>
  <g id="names">
    <g>
      <path d="M96.42,35.13h-4.69l-16.67-26.45-.14,.05v26.4h-4.69V.5h4.69l16.67,26.43,.14-.05V.5h4.69V35.13Z"/>
      <path d="M130.98,20.91c0,4.23-1.31,7.75-3.94,10.54s-6.03,4.19-10.22,4.19-7.33-1.4-9.86-4.19-3.79-6.3-3.79-10.54v-6.16c0-4.22,1.26-7.73,3.79-10.54s5.82-4.21,9.86-4.21,7.59,1.4,10.22,4.2,3.94,6.32,3.94,10.55v6.16Zm-4.69-6.21c0-3.17-.86-5.77-2.57-7.8s-4.01-3.04-6.9-3.04c-2.73,0-4.9,1.01-6.53,3.04s-2.44,4.63-2.44,7.8v6.21c0,3.2,.81,5.82,2.44,7.85s3.8,3.04,6.53,3.04c2.9,0,5.21-1.01,6.91-3.03s2.56-4.64,2.56-7.86v-6.21Z"/>
      <path d="M137.74,35.13V.5h10.89c4.52,0,8.15,1.39,10.91,4.17,2.75,2.78,4.13,6.38,4.13,10.79v4.73c0,4.42-1.38,8.02-4.13,10.79-2.75,2.77-6.39,4.15-10.91,4.15h-10.89Zm4.69-30.95V31.47h6.21c3.2,0,5.73-1.05,7.58-3.16s2.77-4.81,2.77-8.11v-4.78c0-3.27-.92-5.95-2.77-8.06s-4.37-3.16-7.58-3.16h-6.21Z"/>
      <path d="M189.64,19.08h-14.22v12.39h16.65v3.66h-21.34V.5h21.08v3.69h-16.39V15.39h14.22v3.69Z"/>
      <path d="M223.73,.5h4.69V25.1c0,3.22-.98,5.78-2.94,7.68s-4.5,2.85-7.62,2.85-5.72-.84-7.6-2.53-2.78-4.14-2.7-7.36l.05-.14h4.5c0,2.16,.5,3.76,1.5,4.8s2.42,1.57,4.26,1.57c1.73,0,3.14-.63,4.23-1.88s1.64-2.92,1.64-5V.5Z"/>
      <path d="M254.89,26.4c0-1.57-.56-2.89-1.69-3.95s-3.11-1.97-5.95-2.71c-3.52-.87-6.27-2.16-8.24-3.85s-2.96-3.83-2.96-6.4c0-2.71,1.06-4.97,3.19-6.78s4.88-2.71,8.28-2.71c3.65,0,6.55,1.03,8.72,3.1s3.22,4.48,3.15,7.24l-.07,.14h-4.47c0-1.97-.69-3.59-2.06-4.88s-3.13-1.93-5.27-1.93-3.87,.53-5.03,1.59-1.75,2.44-1.75,4.14c0,1.51,.64,2.76,1.91,3.77s3.35,1.89,6.22,2.65c3.49,.9,6.14,2.24,7.97,4s2.74,3.93,2.74,6.52c0,2.79-1.1,5.03-3.29,6.73s-5.06,2.55-8.6,2.55c-3.35,0-6.3-.94-8.86-2.81s-3.8-4.38-3.72-7.52l.05-.14h4.47c0,2.17,.82,3.85,2.47,5.03s3.51,1.77,5.59,1.77c2.22,0,3.98-.5,5.27-1.5s1.94-2.35,1.94-4.07Z"/>
    </g>
  </g>
</svg>