<?xml version="1.0" encoding="UTF-8"?>
<svg id="Layer_2" data-name="Layer 2" xmlns="http://www.w3.org/2000/svg" viewBox="0 0 281.66 344.06">
  <defs>
    <style>
      .cls-1 {
        fill: #f7e018;
      }
    </style>
  </defs>
  <g id="shields">
    <g>
      <rect class="cls-1" x="10.37" y="83.14" width="260.92" height="260.92"/>
      <g>
        <path d="M77.94,301.41l19.89-12.04c3.84,6.8,7.33,12.56,15.7,12.56s13.08-3.14,13.08-15.35v-83.04h24.42v83.39c0,25.3-14.83,36.81-36.46,36.81-19.54,0-30.88-10.12-36.64-22.33Z"/>
        <path d="M164.29,298.8l19.89-11.51c5.23,8.55,12.04,14.83,24.08,14.83,10.12,0,16.57-5.06,16.57-12.04,0-8.37-6.63-11.34-17.79-16.22l-6.11-2.62c-17.62-7.5-29.31-16.92-29.31-36.81,0-18.32,13.96-32.28,35.76-32.28,15.53,0,26.69,5.41,34.72,19.54l-19.02,12.21c-4.19-7.5-8.72-10.47-15.7-10.47s-11.69,4.54-11.69,10.47c0,7.33,4.54,10.29,15,14.83l6.11,2.62c20.76,8.9,32.45,17.97,32.45,38.38,0,21.98-17.27,34.02-40.47,34.02s-37.33-10.82-44.49-24.95Z"/>
      </g>
    </g>
  </g>
  <g id="names">
    <g>
      <path d="M16.42,.51h4.76V25.47c0,3.27-.99,5.87-2.98,7.8-1.99,1.93-4.57,2.9-7.74,2.9s-5.81-.86-7.71-2.57C.84,31.88-.08,29.39,0,26.12l.05-.14H4.62c0,2.19,.51,3.81,1.52,4.88,1.01,1.06,2.45,1.59,4.32,1.59,1.75,0,3.19-.64,4.3-1.91s1.67-2.96,1.67-5.07V.51Z"/>
      <path d="M46.94,26.61h-13.23l-3.14,9.05h-4.85L38.39,.51h4.08l12.41,35.15h-4.85l-3.09-9.05Zm-11.85-3.98h10.5l-5.12-15.09h-.14l-5.24,15.09Z"/>
      <path d="M68.62,26.44l.8,2.92h.14l.8-2.92L79.44,.51h5.14l-13.06,35.15h-4.08L54.38,.51h5.17l9.08,25.93Z"/>
      <path d="M105.56,26.61h-13.23l-3.14,9.05h-4.85L97.01,.51h4.08l12.41,35.15h-4.85l-3.09-9.05Zm-11.85-3.98h10.5l-5.12-15.09h-.14l-5.24,15.09Z"/>
      <path d="M137.4,26.8c0-1.59-.57-2.93-1.71-4.01-1.14-1.08-3.16-2-6.04-2.75-3.57-.88-6.36-2.19-8.37-3.91-2-1.72-3.01-3.89-3.01-6.49,0-2.75,1.08-5.05,3.23-6.88s4.96-2.75,8.4-2.75c3.7,0,6.65,1.05,8.85,3.15,2.2,2.1,3.26,4.55,3.2,7.35l-.07,.14h-4.54c0-2-.7-3.65-2.09-4.95-1.39-1.3-3.17-1.96-5.35-1.96s-3.92,.54-5.11,1.62c-1.18,1.08-1.77,2.48-1.77,4.2,0,1.53,.65,2.81,1.94,3.83,1.3,1.02,3.4,1.92,6.31,2.69,3.54,.92,6.24,2.27,8.09,4.06,1.85,1.79,2.78,3.99,2.78,6.62,0,2.83-1.12,5.11-3.34,6.83-2.23,1.72-5.14,2.58-8.73,2.58-3.4,0-6.39-.95-8.99-2.85-2.6-1.9-3.86-4.44-3.78-7.63l.05-.14h4.54c0,2.21,.84,3.91,2.51,5.11,1.67,1.2,3.56,1.8,5.67,1.8,2.25,0,4.04-.51,5.35-1.52,1.31-1.01,1.97-2.39,1.97-4.13Z"/>
      <path d="M173.98,24.41l.05,.14c.06,3.3-1.09,6.06-3.48,8.28-2.38,2.22-5.53,3.33-9.44,3.33s-7.22-1.41-9.72-4.23c-2.5-2.82-3.75-6.39-3.75-10.72v-6.25c0-4.33,1.25-7.91,3.75-10.73,2.5-2.82,5.74-4.24,9.72-4.24s7.14,1.06,9.49,3.18,3.49,4.92,3.43,8.41l-.05,.14h-4.56c0-2.46-.72-4.41-2.17-5.84-1.45-1.43-3.49-2.15-6.13-2.15s-4.77,1.07-6.35,3.21c-1.58,2.14-2.37,4.8-2.37,7.97v6.3c0,3.2,.79,5.88,2.37,8.02,1.58,2.14,3.69,3.21,6.35,3.21s4.68-.71,6.13-2.14,2.17-3.39,2.17-5.9h4.56Z"/>
      <path d="M184.97,20.43v15.23h-4.76V.53h12.02c3.85,0,6.78,.85,8.81,2.56,2.03,1.71,3.04,4.19,3.04,7.44,0,1.8-.47,3.37-1.41,4.71-.94,1.34-2.31,2.4-4.12,3.19,1.93,.63,3.32,1.65,4.16,3.05,.85,1.41,1.27,3.15,1.27,5.23v3.31c0,1.09,.12,2.08,.36,2.95,.24,.87,.66,1.58,1.26,2.12v.58h-4.9c-.63-.55-1.03-1.35-1.21-2.41-.18-1.06-.27-2.16-.27-3.28v-3.21c0-1.9-.56-3.43-1.67-4.59-1.11-1.16-2.6-1.74-4.47-1.74h-8.14Zm0-3.74h6.78c2.69,0,4.62-.51,5.81-1.53,1.18-1.02,1.77-2.58,1.77-4.67,0-1.98-.58-3.51-1.73-4.6-1.15-1.09-2.94-1.63-5.37-1.63h-7.27v12.43Z"/>
      <path d="M216.93,35.66h-4.78V.51h4.78V35.66Z"/>
      <path d="M230.4,21.56v14.1h-4.76V.51h13.45c3.75,0,6.67,.97,8.75,2.9,2.09,1.93,3.13,4.47,3.13,7.63s-1.04,5.74-3.13,7.65c-2.08,1.92-5,2.87-8.75,2.87h-8.69Zm0-3.72h8.69c2.38,0,4.16-.64,5.34-1.92,1.18-1.28,1.76-2.89,1.76-4.84s-.59-3.57-1.77-4.88c-1.18-1.3-2.96-1.96-5.33-1.96h-8.69v13.59Z"/>
      <path d="M281.66,4.25h-11.59v31.41h-4.76V4.25h-11.44V.51h27.79v3.74Z"/>
    </g>
  </g>
</svg>