<?xml version="1.0" encoding="UTF-8"?>
<svg id="Layer_2" data-name="Layer 2" xmlns="http://www.w3.org/2000/svg" viewBox="0 0 256.2 314.57">
  <defs>
    <style>
      .cls-1 {
        fill: #2f485e;
      }

      .cls-2 {
        fill: #40b17e;
      }
    </style>
  </defs>
  <g id="shields">
    <g>
      <path class="cls-2" d="M255.58,81.37l-52.54-.12L127.79,221.03,53.16,80.92l-52.54-.12c-.54,0-.77,.39-.51,.86,0,0,127.26,232.88,127.41,232.9,0,0,.03-.04,.06-.1,.04,.06,.06,.1,.06,.1,.15-.03,128.44-232.33,128.44-232.33,.26-.47,.03-.86-.51-.87Z"/>
      <polygon class="cls-1" points="157.92 81.16 127.98 136.15 98.28 81.02 53.16 80.92 127.79 221.03 203.04 81.26 157.92 81.16"/>
    </g>
  </g>
  <g id="names">
    <g>
      <path d="M63.11,26.44l.8,2.92h.15l.8-2.92L73.92,.51h5.14l-13.06,35.15h-4.08L48.86,.51h5.17l9.08,25.93Z"/>
      <path d="M109.63,.51V23.85c0,3.86-1.26,6.88-3.77,9.05-2.51,2.17-5.75,3.26-9.71,3.26s-6.94-1.09-9.37-3.27c-2.43-2.18-3.65-5.19-3.65-9.04V.51h4.76V23.85c0,2.69,.77,4.79,2.31,6.31,1.54,1.52,3.52,2.28,5.95,2.28,2.58,0,4.67-.76,6.29-2.28,1.62-1.52,2.43-3.63,2.43-6.31V.51h4.76Z"/>
      <path d="M136.36,19.36h-14.44v12.58h16.9v3.72h-21.66V.51h21.39v3.74h-16.63V15.62h14.44v3.74Z"/>
      <path d="M170.96,.51h4.76V25.47c0,3.27-.99,5.87-2.98,7.8-1.99,1.93-4.57,2.9-7.74,2.9s-5.81-.86-7.71-2.57c-1.91-1.71-2.82-4.2-2.74-7.47l.05-.14h4.56c0,2.19,.51,3.81,1.52,4.88,1.01,1.06,2.45,1.59,4.32,1.59,1.75,0,3.19-.64,4.3-1.91,1.11-1.27,1.67-2.96,1.67-5.07V.51Z"/>
      <path d="M202.58,26.8c0-1.59-.57-2.93-1.71-4.01-1.14-1.08-3.15-2-6.04-2.75-3.57-.88-6.36-2.19-8.37-3.91-2-1.72-3.01-3.89-3.01-6.49,0-2.75,1.08-5.05,3.24-6.88,2.16-1.83,4.96-2.75,8.4-2.75,3.7,0,6.65,1.05,8.85,3.15,2.2,2.1,3.26,4.55,3.2,7.35l-.07,.14h-4.54c0-2-.7-3.65-2.09-4.95-1.39-1.3-3.18-1.96-5.35-1.96s-3.92,.54-5.11,1.62-1.78,2.48-1.78,4.2c0,1.53,.65,2.81,1.94,3.83,1.3,1.02,3.4,1.92,6.31,2.69,3.54,.92,6.24,2.27,8.09,4.06s2.78,3.99,2.78,6.62c0,2.83-1.11,5.11-3.34,6.83-2.23,1.72-5.14,2.58-8.73,2.58-3.4,0-6.39-.95-8.99-2.85-2.6-1.9-3.86-4.44-3.78-7.63l.05-.14h4.54c0,2.21,.84,3.91,2.51,5.11,1.67,1.2,3.57,1.8,5.67,1.8,2.25,0,4.04-.51,5.35-1.52,1.31-1.01,1.97-2.39,1.97-4.13Z"/>
    </g>
  </g>
</svg>