<?xml version="1.0" encoding="UTF-8"?>
<svg id="Layer_2" data-name="Layer 2" xmlns="http://www.w3.org/2000/svg" viewBox="0 0 234.09 342.13">
  <defs>
    <style>
      .cls-1 {
        fill: #fff;
      }

      .cls-2 {
        fill: #e44d26;
      }
    </style>
  </defs>
  <g id="shields">
    <g>
      <polygon class="cls-2" points="116.9 342.13 21.3 315.6 0 76.65 234.09 76.65 212.76 315.56 116.9 342.13"/>
      <polygon class="cls-1" points="117.13 154.8 187.82 154.8 190.44 125.49 117.13 125.49 117.03 125.49 43.65 125.49 51.55 214.11 117.03 214.11 117.13 214.11 153.12 214.11 149.71 252.12 117.03 260.94 117.03 260.94 117 260.95 84.37 252.14 82.28 228.77 52.86 228.77 56.97 274.78 117 291.45 117.13 291.41 117.13 291.4 177.11 274.78 185.15 184.81 117.13 184.81 117.03 184.81 78.35 184.81 75.68 154.8 117.03 154.8 117.13 154.8"/>
    </g>
  </g>
  <g id="names">
    <g>
      <path d="M79.37,35.15h-4.76v-15.52h-17.07v15.52h-4.76V0h4.76V15.89h17.07V0h4.76V35.15Z"/>
      <path d="M111.46,3.74h-11.59v31.41h-4.76V3.74h-11.44V0h27.79V3.74Z"/>
      <path d="M133.88,28.56h.14L145.26,0h5.92V35.15h-4.76V8.81l-.14-.02-10.65,26.36h-3.31l-10.96-27.23-.14,.02v27.21h-4.76V0h6.25l11.18,28.56Z"/>
      <path d="M164.16,31.43h17.14v3.72h-21.9V0h4.76V31.43Z"/>
    </g>
  </g>
</svg>