<?xml version="1.0" encoding="UTF-8"?>
<svg id="Layer_2" data-name="Layer 2" xmlns="http://www.w3.org/2000/svg" viewBox="0 0 286.15 344.06">
  <defs>
    <style>
      .cls-1 {
        fill: #fff;
      }

      .cls-2 {
        fill: #3178c6;
      }
    </style>
  </defs>
  <g id="shields">
    <g>
      <rect class="cls-2" x="12.61" y="83.14" width="260.92" height="260.92"/>
      <g>
        <path class="cls-1" d="M159.08,225.52h-34.33v98.28h-27.19v-98.28H63.4v-22.07h95.68v22.07Z"/>
        <path class="cls-1" d="M169.74,319.19v-26.86c4.87,4.09,10.16,7.15,15.86,9.19,5.71,2.04,11.47,3.06,17.29,3.06,3.41,0,6.39-.31,8.94-.92,2.55-.62,4.67-1.47,6.38-2.56,1.71-1.09,2.98-2.38,3.82-3.86,.84-1.48,1.26-3.09,1.26-4.83,0-2.35-.67-4.45-2.01-6.29-1.34-1.85-3.18-3.55-5.5-5.12-2.32-1.57-5.08-3.08-8.27-4.53-3.19-1.45-6.63-2.94-10.32-4.45-9.4-3.92-16.41-8.7-21.02-14.35-4.62-5.65-6.92-12.48-6.92-20.48,0-6.27,1.26-11.65,3.78-16.16,2.52-4.5,5.94-8.21,10.28-11.12,4.34-2.91,9.36-5.05,15.07-6.42,5.71-1.37,11.75-2.06,18.13-2.06s11.82,.38,16.66,1.13c4.84,.76,9.3,1.92,13.39,3.48v25.09c-2.01-1.4-4.21-2.63-6.59-3.69-2.38-1.06-4.83-1.94-7.34-2.64-2.52-.7-5.02-1.22-7.51-1.55-2.49-.34-4.85-.5-7.09-.5-3.08,0-5.87,.29-8.39,.88-2.52,.59-4.64,1.41-6.38,2.48-1.73,1.06-3.08,2.34-4.03,3.82-.95,1.48-1.43,3.15-1.43,4.99,0,2.01,.53,3.82,1.59,5.41,1.06,1.59,2.57,3.11,4.53,4.53,1.96,1.43,4.34,2.83,7.13,4.2,2.8,1.37,5.96,2.78,9.48,4.24,4.81,2.01,9.13,4.15,12.97,6.42,3.83,2.27,7.12,4.83,9.86,7.68,2.74,2.85,4.84,6.11,6.29,9.78,1.45,3.67,2.18,7.93,2.18,12.8,0,6.71-1.27,12.35-3.82,16.91-2.55,4.56-6,8.25-10.37,11.08-4.36,2.83-9.44,4.85-15.23,6.08-5.79,1.23-11.91,1.85-18.34,1.85s-12.88-.56-18.84-1.68c-5.96-1.12-11.12-2.8-15.49-5.04Z"/>
      </g>
    </g>
  </g>
  <g id="names">
    <g>
      <path d="M27.79,4.25h-11.59v31.41h-4.76V4.25H0V.51H27.79v3.74Z"/>
      <path d="M44.64,18.37L53.82,.51h5.43l-12.34,22.79v12.36h-4.73v-12.72L30.03,.51h5.43l9.17,17.87Z"/>
      <path d="M69.19,21.56v14.1h-4.76V.51h13.45c3.75,0,6.67,.97,8.75,2.9s3.13,4.47,3.13,7.63-1.04,5.74-3.13,7.65c-2.08,1.92-5,2.87-8.75,2.87h-8.69Zm0-3.72h8.69c2.38,0,4.16-.64,5.34-1.92,1.18-1.28,1.76-2.89,1.76-4.84s-.59-3.57-1.77-4.88c-1.18-1.3-2.96-1.96-5.32-1.96h-8.69v13.59Z"/>
      <path d="M115.07,19.36h-14.44v12.58h16.9v3.72h-21.66V.51h21.39v3.74h-16.63V15.62h14.44v3.74Z"/>
      <path d="M141.89,26.8c0-1.59-.57-2.93-1.71-4.01-1.14-1.08-3.15-2-6.04-2.75-3.57-.88-6.36-2.19-8.37-3.91-2-1.72-3.01-3.89-3.01-6.49,0-2.75,1.08-5.05,3.24-6.88,2.16-1.83,4.96-2.75,8.4-2.75,3.7,0,6.65,1.05,8.85,3.15,2.2,2.1,3.26,4.55,3.2,7.35l-.07,.14h-4.54c0-2-.7-3.65-2.09-4.95-1.39-1.3-3.18-1.96-5.35-1.96s-3.92,.54-5.11,1.62c-1.18,1.08-1.78,2.48-1.78,4.2,0,1.53,.65,2.81,1.94,3.83s3.4,1.92,6.31,2.69c3.54,.92,6.24,2.27,8.09,4.06s2.78,3.99,2.78,6.62c0,2.83-1.11,5.11-3.34,6.83-2.23,1.72-5.14,2.58-8.73,2.58-3.4,0-6.39-.95-8.99-2.85-2.6-1.9-3.86-4.44-3.78-7.63l.05-.14h4.54c0,2.21,.84,3.91,2.51,5.11,1.67,1.2,3.57,1.8,5.67,1.8,2.25,0,4.04-.51,5.35-1.52,1.31-1.01,1.97-2.39,1.97-4.13Z"/>
      <path d="M178.47,24.41l.05,.14c.06,3.3-1.09,6.06-3.48,8.28-2.38,2.22-5.53,3.33-9.44,3.33s-7.21-1.41-9.72-4.23c-2.5-2.82-3.75-6.39-3.75-10.72v-6.25c0-4.33,1.25-7.91,3.75-10.73,2.5-2.82,5.74-4.24,9.72-4.24s7.14,1.06,9.49,3.18c2.35,2.12,3.49,4.92,3.43,8.41l-.05,.14h-4.56c0-2.46-.72-4.41-2.17-5.84-1.45-1.43-3.49-2.15-6.13-2.15s-4.77,1.07-6.35,3.21-2.37,4.8-2.37,7.97v6.3c0,3.2,.79,5.88,2.37,8.02s3.69,3.21,6.35,3.21,4.68-.71,6.13-2.14,2.17-3.39,2.17-5.9h4.56Z"/>
      <path d="M189.45,20.43v15.23h-4.76V.53h12.02c3.85,0,6.78,.85,8.81,2.56,2.03,1.71,3.04,4.19,3.04,7.44,0,1.8-.47,3.37-1.41,4.71-.94,1.34-2.31,2.4-4.12,3.19,1.93,.63,3.32,1.65,4.16,3.05s1.27,3.15,1.27,5.23v3.31c0,1.09,.12,2.08,.36,2.95,.24,.87,.66,1.58,1.26,2.12v.58h-4.9c-.63-.55-1.03-1.35-1.21-2.41-.18-1.06-.27-2.16-.27-3.28v-3.21c0-1.9-.56-3.43-1.67-4.59s-2.6-1.74-4.47-1.74h-8.14Zm0-3.74h6.78c2.69,0,4.62-.51,5.81-1.53,1.18-1.02,1.78-2.58,1.78-4.67,0-1.98-.58-3.51-1.73-4.6-1.15-1.09-2.94-1.63-5.37-1.63h-7.27v12.43Z"/>
      <path d="M221.42,35.66h-4.78V.51h4.78V35.66Z"/>
      <path d="M234.89,21.56v14.1h-4.76V.51h13.45c3.75,0,6.67,.97,8.75,2.9s3.13,4.47,3.13,7.63-1.04,5.74-3.13,7.65c-2.08,1.92-5,2.87-8.75,2.87h-8.69Zm0-3.72h8.69c2.38,0,4.16-.64,5.34-1.92s1.76-2.89,1.76-4.84-.59-3.57-1.77-4.88c-1.18-1.3-2.96-1.96-5.32-1.96h-8.69v13.59Z"/>
      <path d="M286.15,4.25h-11.59v31.41h-4.76V4.25h-11.44V.51h27.79v3.74Z"/>
    </g>
  </g>
</svg>